PathFileType	4	(X/Y/Z)	RBDS04\RBDS04runT25.trc
DataRate	CameraRate	NumFrames	NumMarkers	Units	OrigDataRate	OrigDataStartFrame	OrigNumFrames
150.000000	150.000000	5	33	mm	150.000000	3375	4500
Frame#	Time	L.ASIS			L.Heel.Bottom			L.Heel.Lateral			L.Heel.Top			L.Iliac.Crest			L.MT1			L.MT5			L.PSIS			L.Shank.Bottom.Lateral			L.Shank.Bottom.Medial			L.Shank.Top.Lateral			L.Shank.Top.Medial			L.Thigh.Bottom.Lateral			L.Thigh.Bottom.Medial			L.Thigh.Top.Lateral			L.Thigh.Top.Medial			R.ASIS			R.ASY			R.Heel.Bottom			R.Heel.Lateral			R.Heel.Top			R.Iliac.Crest			R.MT1			R.MT5			R.PSIS			R.Shank.Bottom.Lateral			R.Shank.Bottom.Medial			R.Shank.Top.Lateral			R.Shank.Top.Medial			R.Thigh.Bottom.Lateral			R.Thigh.Bottom.Medial			R.Thigh.Top.Lateral			R.Thigh.Top.Medial			
		X1	Y1	Z1	X2	Y2	Z2	X3	Y3	Z3	X4	Y4	Z4	X5	Y5	Z5	X6	Y6	Z6	X7	Y7	Z7	X8	Y8	Z8	X9	Y9	Z9	X10	Y10	Z10	X11	Y11	Z11	X12	Y12	Z12	X13	Y13	Z13	X14	Y14	Z14	X15	Y15	Z15	X16	Y16	Z16	X17	Y17	Z17	X18	Y18	Z18	X19	Y19	Z19	X20	Y20	Z20	X21	Y21	Z21	X22	Y22	Z22	X23	Y23	Z23	X24	Y24	Z24	X25	Y25	Z25	X26	Y26	Z26	X27	Y27	Z27	X28	Y28	Z28	X29	Y29	Z29	X30	Y30	Z30	X31	Y31	Z31	X32	Y32	Z32	X33	Y33	Z33	

3376	22.5	2127.275086620112	906.7404751209243	912.1028532080113	1704.678589122575	367.7097855141205	914.27595121228	1730.283871109358	340.2550077746906	873.1137753470896	1751.885575670573	367.562566181437	915.6167693608866	2069.253092764304	970.7663582220205	862.0367747627591	1768.419071301157	162.9989193938995	954.6028504007356	1750.426398341627	188.6423054689193	857.0340337401128	1961.179614076504	947.9661214825475	961.2881060169376	1857.241393955998	336.0464906008923	868.2511568730818	1840.228275093837	377.0002972585468	893.5179319807697	1930.79647056679	369.4791910138211	859.2032060967625	1916.805649923935	412.4348935750717	887.2886248590463	2132.773104490179	553.196500711519	843.3852801472458	2072.686456051074	534.4410421103844	880.5818869069026	2091.205755203218	654.9313133015886	832.6188945438812	2034.486710938058	637.566423117401	867.8747238412949	2119.117325100687	918.8706163647078	1105.125908334093	2044.249804421023	82.20142041749571	1025.1532211302	1873.208723465504	32.38121701929536	1015.653052889344	1904.308515360445	47.48619700542132	1057.300523888878	1884.032813943056	77.26650788511964	1016.10506871568	2059.75771137936	971.189586505503	1149.582361338108	2088.284569368236	49.72556018962563	992.461154020064	2055.332691532443	40.27100675243342	1087.215908269512	1958.561670644867	955.2923120820788	1044.25056515602	1980.694177858814	154.2595553645806	1079.118488830235	1944.754809563612	179.3917113338432	1046.987626202573	2005.968665908526	227.6366807939294	1104.171159137884	1972.271643674573	251.135992950421	1068.919016180708	2096.575186732777	549.2610458280643	1152.152741139326	2040.73671778612	537.8515155087142	1105.278468214103	2057.19008294839	651.2753470000886	1170.910992803251	2003.190456771488	639.202553300022	1127.313533382314	
3377	22.50666666666667	2126.612261829692	909.1213446446745	912.8584406156929	1714.853490158614	360.0441082352036	914.9212949207599	1741.900957530852	333.7974351467248	873.9700413895331	1762.07991832791	361.7248528826777	916.639279764269	2067.910965034194	973.3244231580948	862.9741918380827	1786.359668683534	157.7633516461032	954.8847009940192	1768.090469597337	183.1489879667266	857.330439237737	1960.518220707605	950.0187514716454	962.2172640384182	1869.008063176386	333.4004120379007	869.0231556208804	1850.993948207367	373.8639648846658	894.3058804063542	1941.623983198331	368.7702793308566	859.8055034185992	1926.609817294215	411.2891803597601	887.9446866060982	2139.309529552636	557.855179190131	843.1660960278228	2079.6782833487	537.4026515857618	880.1720372783927	2095.165494991069	658.5316987007503	832.6110268228166	2038.74780186033	639.5239975583105	867.4993542858834	2118.541698894027	920.0110940135114	1105.892090566902	2027.565872732901	82.41029195441537	1025.627082743121	1856.354591297476	33.16971395842675	1015.82198243834	1887.438080549793	47.96108991889769	1057.618685386133	1867.29446079929	78.03909973697888	1016.528885373382	2059.862184947641	973.3706249238156	1150.110425045299	2071.394343941734	49.67323843155206	992.637117792667	2038.411398648242	39.97901613813571	1087.330198121589	1958.087902691774	956.9115477116773	1045.253591715467	1964.744092239926	155.2394724513305	1079.547009699583	1929.225126008849	180.7754335257012	1047.374156864863	1990.983330587396	228.2431409801403	1104.530535862664	1957.627997133832	252.1044757766731	1069.220153724116	2087.775118793288	549.0813182657959	1152.479393147938	2031.010364853066	538.8931057398846	1106.460493890301	2051.20974822915	652.1536117575239	1171.385864945123	1996.555890217077	641.4029864930778	1128.259842914116	
3378	22.51333333333334	2126.197070223462	912.1396924074079	913.8424378689759	1725.189538352521	351.3277496522595	915.6843808329546	1753.616406456875	326.3556900509973	874.9519678278186	1772.357619047857	355.0084254115296	917.7216626027055	2066.904367033681	976.499167971282	864.0311139069844	1804.978483204211	152.0724140512473	955.4399136859873	1786.175723466016	177.0134164137339	857.8564312296376	1960.052251051364	952.6307202839134	963.2234811496567	1880.765208935054	330.3215036004809	869.8663886293401	1861.585218440955	370.1827508248358	895.1795065828147	1952.233226922079	367.8857504512607	860.4663105386295	1936.04130357748	409.8770128169717	888.6728485788118	2145.61162574281	563.2623802780724	842.9369710931043	2086.382348496529	541.1802834592386	879.6215747492544	2099.067266104616	662.8762439468928	832.5637558077839	2042.904160259516	642.2920588621714	866.9590693928309	2118.119422079701	921.5171602985959	1106.8104187877	2010.967441376901	82.78763538501383	1026.11200017624	1839.501728331031	34.42129132826275	1016.024555931801	1870.584610877038	48.80742070448387	1057.977769623516	1850.639376826349	79.25166428537514	1017.033621640093	2060.423162017106	976.0121561818335	1150.679528174734	2054.520895070465	49.64182271543987	992.7106595248545	2021.454324763368	39.7680537021519	1087.379239717105	1957.80604345845	959.015158927552	1046.368755697672	1948.7590697364	156.7260722375267	1079.93497818048	1913.558906512407	182.5741097096035	1047.699736885527	1975.812673168874	229.4040203803693	1104.802076773403	1942.749618889021	253.5649378191826	1069.418739861617	2078.741028996149	549.5025717589004	1152.617948897287	2021.096567023013	540.666743516643	1107.421548126448	2045.152624357281	653.573345053608	1171.745003325546	1989.833191560251	644.2504377444604	1129.129890291209	
3379	22.52	2126.022998727136	915.7542289483432	915.0461877345126	1735.769982360271	341.6042912697587	916.5837758674967	1765.483114468062	317.976767981302	876.0530960358819	1782.777898527163	347.4343911812151	918.8607455958198	2066.210234686796	980.2109377181292	865.167192449707	1824.254379113517	146.0291934726784	956.2464100066962	1804.665925739527	170.3275927696353	858.5967260604529	1959.782826824055	955.7734519094922	964.2819854691315	1892.523800187243	326.8123255214271	870.7743189886482	1872.033784799539	365.9520855934985	896.1288011666581	1962.627717981809	366.7882468444821	861.1821665901697	1945.116583619646	408.1569469525151	889.4631732586018	2151.659338116625	569.3279585568388	842.7043679965136	2092.763067137551	545.6987985086234	878.929769350358	2102.91611345555	667.8975485105724	832.4814251576568	2046.952506277211	645.8204531468067	866.26136760593	2117.853161026145	923.3665271616763	1107.868932863963	1994.524216598329	83.34664912356553	1026.634768996193	1822.7056429311	36.27505975710995	1016.266006566148	1853.8179907534	50.13429311255043	1058.379386105443	1834.149810120993	81.02876579884423	1017.633600930002	2061.404913660856	979.0326632887054	1151.281326195779	2037.681126482728	49.63605130715587	992.7032979198069	2004.477716980466	39.65233499983634	1087.375692980009	1957.727259217049	961.5843839955581	1047.573287178319	1932.837245536485	158.7996053335486	1080.304166583951	1897.852714394346	184.87761423318	1047.987811060511	1960.570443936715	231.2012702381228	1105.009438898952	1927.74730437444	255.6079499026431	1069.544084664284	2069.559601929328	550.549709846049	1152.573006986813	2011.139473548636	543.206202747842	1108.099153205273	2039.067998235484	655.5313476829931	1171.982522980129	1983.123726058062	647.7552857121295	1129.856489265092	
3380	22.52666666666667	2126.071948515033	919.9132371114906	916.4347808385364	1746.681462616552	330.9286363564521	917.6337504635018	1777.568569600259	308.7199268263728	877.2657543522253	1793.404618417052	339.0328440353901	920.0539372530153	2065.790431750472	984.3899917690618	866.3379047230945	1844.17677037428	139.7413639775492	957.276777183632	1823.571330070666	163.188475744402	859.5351324196814	1959.708526285626	959.4124800857376	965.3675170883358	1904.305813902448	322.8819126309521	871.7431475244646	1882.38547214665	361.175727240821	897.1462837891179	1972.822259303749	365.446073171123	861.950774223379	1953.865337378241	406.0923923644696	890.3073412542886	2157.4325406199	575.9463185013822	842.475031500016	2098.791957452866	550.8674064284478	878.1092850428108	2106.709380732177	673.5124606317352	832.3675802535056	2050.887966196638	650.042678322973	865.4248197297406	2117.749199991823	925.5382682554867	1109.035691910551	1978.31548560793	84.07959057498361	1027.22200444888	1806.035828651493	38.85865754773552	1016.545023715344	1837.218009358541	52.04255238693643	1058.818993452959	1817.922469026358	83.48191121709355	1018.33141448681	2062.761379458997	982.3603539525998	1151.896494103178	2020.893924537774	49.64288784684993	992.6435488218511	1987.502415397191	39.63409696729995	1087.336737015426	1957.863263831483	964.5959769001801	1048.842922739359	1917.071628389718	161.5132314553825	1080.678909376965	1882.213376530653	187.7496608260802	1048.256641514814	1945.359984878183	233.6903526379526	1105.182261897057	1912.732917412587	258.292681085489	1069.62163787753	2060.305286428444	552.2338634412082	1152.370944857534	2001.258318191079	546.5208327135513	1108.468850805298	2032.997353203859	658.0205411687696	1172.105061914915	1976.513575768437	651.9153273149476	1130.393547719098	
